<?xml version="1.0" standalone="no"?>
<!DOCTYPE svg PUBLIC "-//W3C//DTD SVG 20010904//EN"
 "http://www.w3.org/TR/2001/REC-SVG-20010904/DTD/svg10.dtd">
<svg version="1.0" xmlns="http://www.w3.org/2000/svg"
 width="700.000000pt" height="700.000000pt" viewBox="0 0 700.000000 700.000000"
 preserveAspectRatio="xMidYMid meet">
<metadata>
Created by potrace 1.14, written by Peter Selinger 2001-2017
</metadata>
<g transform="translate(0.000000,700.000000) scale(0.100000,-0.100000)"
fill="#000000" stroke="none">
<path d="M3337 6994 c-1 -1 -40 -5 -87 -8 -47 -4 -96 -8 -110 -10 -14 -3 -47
-7 -75 -10 -27 -3 -61 -8 -75 -10 -14 -3 -54 -10 -90 -16 -36 -7 -128 -27
-205 -46 -77 -19 -149 -37 -161 -39 -49 -11 -276 -87 -344 -115 -132 -54 -153
-64 -275 -126 -217 -110 -464 -273 -668 -442 -162 -132 -411 -394 -512 -536
-11 -16 -30 -40 -41 -55 -54 -66 -198 -290 -263 -408 -135 -246 -251 -547
-316 -823 -34 -144 -56 -256 -70 -345 -9 -60 -18 -121 -21 -135 -17 -104 -23
-462 -11 -628 10 -124 32 -265 73 -462 2 -14 7 -33 10 -42 3 -10 8 -30 10 -45
21 -113 130 -459 180 -570 100 -220 183 -374 289 -533 61 -92 178 -254 212
-295 10 -11 42 -49 71 -85 58 -69 278 -290 352 -353 64 -54 250 -193 350 -262
311 -214 692 -383 1056 -470 203 -49 269 -63 314 -70 25 -4 54 -9 65 -11 253
-47 665 -51 950 -8 157 23 228 38 445 90 110 27 378 111 395 124 6 4 21 11 35
15 66 20 263 114 400 193 281 161 528 349 745 567 129 129 171 174 225 245 19
25 38 47 41 50 13 11 168 229 221 311 207 321 346 656 442 1064 24 105 48 210
51 235 4 24 8 47 10 50 2 3 7 40 11 81 3 40 8 77 10 81 8 13 18 235 18 383 -1
134 -8 280 -19 347 -2 12 -6 44 -9 69 -9 63 -34 199 -50 274 -29 136 -108 422
-133 485 -4 8 -7 17 -8 20 -2 6 -6 16 -61 151 -45 110 -151 322 -185 370 -10
15 -19 30 -19 34 0 13 -166 258 -242 357 -105 137 -158 198 -293 334 -375 378
-879 692 -1359 844 -108 34 -310 87 -366 96 -19 3 -38 8 -43 11 -4 2 -19 6
-32 9 -14 2 -37 6 -52 9 -16 3 -53 9 -83 15 -30 5 -77 12 -105 15 -27 3 -61 8
-75 10 -72 13 -511 29 -523 19z"/>
</g>
</svg>
